<svg xmlns="http://www.w3.org/2000/svg" width="44" height="44" fill="none" viewBox="0 0 44 44"><g fill="#ee7c8b" clip-path="url(#a)"><path d="M35.95 23.46a.266.266 0 1 0 0 .532.266.266 0 0 0 0-.531m.889 1.351a.266.266 0 1 0 0-.53.266.266 0 0 0 0 .53m-.889.36a.266.266 0 1 0 0 .531.266.266 0 0 0 0-.531m.889.828a.266.266 0 1 0 0 .531.266.266 0 0 0 0-.531m-.889.883a.266.266 0 1 0 0 .531.266.266 0 0 0 0-.531m.889.827a.266.266 0 1 0 0 .532.266.266 0 0 0 0-.531m-.889.891a.266.266 0 1 0 0 .53.266.266 0 0 0 0-.53m.623 1.086a.266.266 0 0 0 .364.246l.06-.458a.266.266 0 0 0-.424.212m-.623.625a.266.266 0 1 0 0 .53.266.266 0 0 0 0-.53m0 1.71a.266.266 0 1 0 0 .532.266.266 0 0 0 0-.532m0 1.711a.266.266 0 1 0 0 .532.266.266 0 0 0 0-.532m0 1.711a.266.266 0 0 0 0 .532.26.26 0 0 0 .204-.098l.037-.28a.27.27 0 0 0-.241-.154M34.238 23.46a.266.266 0 1 0 0 .532.266.266 0 0 0 0-.531m.888 1.351a.266.266 0 1 0 0-.53.266.266 0 0 0 0 .53m-.888.36a.266.266 0 1 0 0 .531.266.266 0 0 0 0-.531m.888 1.359a.266.266 0 1 0 0-.531.266.266 0 0 0 0 .531m-.888.352a.266.266 0 1 0 0 .531.266.266 0 0 0 0-.531m.888 1.359a.266.266 0 1 0 0-.531.266.266 0 0 0 0 .531m-.888.36a.266.266 0 1 0 0 .53.266.266 0 0 0 0-.53m.888 1.351a.266.266 0 1 0 0-.531.266.266 0 0 0 0 .531m-.888.36a.266.266 0 1 0 0 .53.266.266 0 0 0 0-.53m.888 1.351a.266.266 0 1 0 0-.531.266.266 0 0 0 0 .531m-.888.359a.266.266 0 1 0 0 .532.266.266 0 0 0 0-.532m.888 1.352a.266.266 0 1 0 0-.531.266.266 0 0 0 0 .53m-.888.36a.266.266 0 1 0 0 .532.266.266 0 0 0 0-.532m.888 1.36a.266.266 0 1 0 0-.531.266.266 0 0 0 0 .53m-.888.352a.266.266 0 1 0 0 .531.266.266 0 0 0 0-.53m.888 1.359a.266.266 0 1 0 0-.531.266.266 0 0 0 0 .53m-.888.352a.266.266 0 1 0 0 .531.266.266 0 0 0 0-.53m.888 1.359a.266.266 0 1 0 0-.532.266.266 0 0 0 0 .532m-.888.359a.266.266 0 1 0 0 .531.266.266 0 0 0 0-.531m.888 1.352a.266.266 0 1 0 0-.532.266.266 0 0 0 0 .532m-.888.359a.266.266 0 1 0 0 .531.266.266 0 0 0 0-.531m0 1.711a.266.266 0 0 0-.021.529q.15-.122.286-.259v-.005a.266.266 0 0 0-.265-.265M32.526 23.46a.266.266 0 1 0 0 .532.266.266 0 0 0 0-.531m.888.82a.266.266 0 1 0 0 .531.266.266 0 0 0 0-.53m-.888.89a.266.266 0 1 0 0 .531.266.266 0 0 0 0-.531m.888.828a.266.266 0 1 0 0 .531.266.266 0 0 0 0-.531m-.888.883a.266.266 0 1 0 0 .531.266.266 0 0 0 0-.531m.888.827a.266.266 0 1 0 0 .532.266.266 0 0 0 0-.531m-.888.891a.266.266 0 1 0 0 .53.266.266 0 0 0 0-.53m.888.82a.266.266 0 1 0 0 .531.266.266 0 0 0 0-.531m-.888.891a.266.266 0 1 0 0 .53.266.266 0 0 0 0-.53m.888.82a.266.266 0 1 0 0 .531.266.266 0 0 0 0-.531m-.888.89a.266.266 0 1 0 0 .532.266.266 0 0 0 0-.532m.888.821a.266.266 0 1 0 0 .53.266.266 0 0 0 0-.53m-.888.89a.266.266 0 1 0 0 .532.266.266 0 0 0 0-.532m.888.829a.266.266 0 1 0 0 .53.266.266 0 0 0 0-.53m-.888.882a.266.266 0 1 0 0 .531.266.266 0 0 0 0-.53m.888.827a.266.266 0 1 0 0 .532.266.266 0 0 0 0-.532m-.888.883a.266.266 0 1 0 0 .531.266.266 0 0 0 0-.53m.888.827a.266.266 0 1 0 0 .532.266.266 0 0 0 0-.532m-.888.891a.266.266 0 1 0 0 .531.266.266 0 0 0 0-.531m.888.82a.266.266 0 1 0 0 .531.266.266 0 0 0 0-.53m-.888.89a.266.266 0 1 0 0 .531.266.266 0 0 0 0-.531m.888.82a.266.266 0 1 0 0 .531.266.266 0 0 0 0-.53m-.888.89a.266.266 0 1 0 0 .53.266.266 0 0 0 0-.53m-1.713-18.305a.266.266 0 1 0 0-.531.266.266 0 0 0 0 .531m.888.289a.266.266 0 1 0 0 .531.266.266 0 0 0 0-.53m-.888 1.421a.266.266 0 1 0 0-.531.266.266 0 0 0 0 .531m.888.297a.266.266 0 1 0 0 .531.266.266 0 0 0 0-.531m0 3.422a.26.26 0 0 0-.123.032l-.056.428a.266.266 0 1 0 .18-.46m-.001 1.711a.266.266 0 1 0 0 .531.266.266 0 0 0 0-.531m0 1.711a.266.266 0 1 0 0 .53.266.266 0 0 0 0-.53m0 1.719a.266.266 0 1 0 0 .53.266.266 0 0 0 0-.53m-.888.882-.024.003-.068.511a.264.264 0 0 0 .358-.248.266.266 0 0 0-.266-.266m.888.828a.266.266 0 1 0 0 .532.266.266 0 0 0 0-.532m-.888.883a.266.266 0 1 0 0 .531.266.266 0 0 0 0-.53m.888.827a.266.266 0 1 0 0 .532.266.266 0 0 0 0-.532m-.888.891a.266.266 0 1 0 0 .531.266.266 0 0 0 0-.531m.888.82a.266.266 0 1 0 0 .531.266.266 0 0 0 0-.53m-.888.89a.266.266 0 1 0 0 .531.266.266 0 0 0 0-.531m.888.82a.266.266 0 1 0 0 .531.266.266 0 0 0 0-.53m-.888.89a.266.266 0 1 0 0 .53.266.266 0 0 0 0-.53m1.154 1.086a.266.266 0 1 0-.531 0 .266.266 0 0 0 .531 0M29.1 23.46a.266.266 0 1 0 0 .532.266.266 0 0 0 0-.531m.89.82a.266.266 0 1 0 0 .531.266.266 0 0 0 0-.53m-.89.89a.266.266 0 1 0 0 .531.266.266 0 0 0 0-.531m.89.828a.266.266 0 1 0 0 .531.266.266 0 0 0 0-.531m.265 15.67a.265.265 0 0 0-.251-.264l-.07.524a.266.266 0 0 0 .32-.26m-.264 1.978a.266.266 0 1 0-.229-.4l-.027.206a.265.265 0 0 0 .255.194M27.388 23.46a.266.266 0 1 0 0 .532.266.266 0 0 0 0-.531m.889.82a.266.266 0 1 0 0 .531.266.266 0 0 0 0-.53m-.889.89a.266.266 0 1 0 0 .531.266.266 0 0 0 0-.531m.889.828a.266.266 0 1 0 0 .531.266.266 0 0 0 0-.531m-2.601-2.54a.266.266 0 1 0 0 .532.266.266 0 0 0 0-.531m.888.82a.266.266 0 1 0 0 .531.266.266 0 0 0 0-.53m-.888.89a.266.266 0 1 0 0 .531.266.266 0 0 0 0-.531m.888.828a.266.266 0 1 0 0 .531.266.266 0 0 0 0-.531m-2.6-2.54a.266.266 0 1 0 0 .532.266.266 0 0 0 0-.531m.888.82a.266.266 0 1 0 0 .531.266.266 0 0 0 0-.53m-.888.89a.266.266 0 1 0 0 .531.266.266 0 0 0 0-.531m.888.828a.266.266 0 1 0 0 .531.266.266 0 0 0 0-.531m-2.601-2.54a.266.266 0 1 0 0 .532.266.266 0 0 0 0-.531m1.157 1.115a.266.266 0 1 0-.53-.021.266.266 0 0 0 .53.02m-1.157.597a.266.266 0 1 0 0 .531.266.266 0 0 0 0-.531m.889.828a.266.266 0 1 0 0 .531.266.266 0 0 0 0-.531m-2.601-2.54a.266.266 0 1 0 0 .532.266.266 0 0 0 0-.531m1.159 1.095a.266.266 0 1 0-.531-.009.266.266 0 0 0 .53.009m-1.158.616a.266.266 0 1 0 0 .531.266.266 0 0 0 0-.531m.888.828a.266.266 0 1 0 0 .531.266.266 0 0 0 0-.531m-2.601-2.54a.266.266 0 1 0 0 .532.266.266 0 0 0 0-.531m.889.82a.266.266 0 1 0 0 .531.266.266 0 0 0 0-.53m-.889.89a.266.266 0 1 0 0 .531.266.266 0 0 0 0-.531m.889.828a.266.266 0 1 0 0 .531.266.266 0 0 0 0-.531m-2.601-2.54a.266.266 0 1 0 0 .532.266.266 0 0 0 0-.531m.888.82a.266.266 0 1 0 0 .531.266.266 0 0 0 0-.53m-.888.89a.266.266 0 1 0 0 .531.266.266 0 0 0 0-.531m.888.828a.266.266 0 1 0 0 .531.266.266 0 0 0 0-.531m-2.6-2.54a.266.266 0 1 0 0 .532.266.266 0 0 0 0-.531m.888.82a.266.266 0 1 0 0 .531.266.266 0 0 0 0-.53m-.888.89a.266.266 0 1 0 0 .531.266.266 0 0 0 0-.531m.888.828a.266.266 0 1 0 0 .531.266.266 0 0 0 0-.531m-2.6-2.54a.266.266 0 1 0 0 .532.266.266 0 0 0 0-.531m.888.82a.266.266 0 1 0 0 .531.266.266 0 0 0 0-.53m-.888.89a.266.266 0 1 0 0 .531.266.266 0 0 0 0-.531m.888.828a.266.266 0 1 0 0 .531.266.266 0 0 0 0-.531m-2.601-2.54a.266.266 0 1 0 0 .532.266.266 0 0 0 0-.531m.888.82a.266.266 0 1 0 0 .531.266.266 0 0 0 0-.53m-.888.89a.266.266 0 1 0 0 .531.266.266 0 0 0 0-.531m.888.828a.266.266 0 1 0 0 .531.266.266 0 0 0 0-.531m-2.6-2.54a.266.266 0 1 0 0 .532.266.266 0 0 0 0-.531m.888.82a.266.266 0 1 0 0 .531.266.266 0 0 0 0-.53m-.888.89a.266.266 0 1 0 0 .531.266.266 0 0 0 0-.531m.888.828a.266.266 0 1 0 0 .531.266.266 0 0 0 0-.531m-2.601-2.54a.266.266 0 1 0 0 .532.266.266 0 0 0 0-.531m.888 1.351a.266.266 0 1 0 0-.53.266.266 0 0 0 0 .53m-.888.36a.266.266 0 1 0 0 .531.266.266 0 0 0 0-.531M9.44 26a.266.266 0 1 0 0 .531.266.266 0 0 0 0-.531m-2.6-2.54a.266.266 0 1 0 0 .532.266.266 0 0 0 0-.531m.888.82a.266.266 0 1 0 0 .532.266.266 0 0 0 0-.532m-.888 1.422a.266.266 0 1 0 0-.531.266.266 0 0 0 0 .531m.888.297a.266.266 0 1 0 0 .531.266.266 0 0 0 0-.531m16.606-14.719h-1.277a1.877 1.877 0 0 0-1.875 1.875v1.277c0 1.034.841 1.875 1.875 1.875h1.277a1.877 1.877 0 0 0 1.875-1.875v-1.277a1.877 1.877 0 0 0-1.875-1.875m10.144 3.361-.854-.95a1.86 1.86 0 0 0-1.294-.619 1.86 1.86 0 0 0-1.353.478l-.95.853a1.877 1.877 0 0 0-.141 2.648l.854.95a1.86 1.86 0 0 0 1.396.621c.463 0 .904-.168 1.25-.48l.95-.854c.77-.69.833-1.878.142-2.647M19.226 17.17a.347.347 0 0 1-.347-.346 3.345 3.345 0 0 0-3.341-3.342 3.345 3.345 0 0 0-3.341 3.342.347.347 0 1 1-.694 0 4.04 4.04 0 0 1 4.035-4.035 4.04 4.04 0 0 1 4.035 4.035.347.347 0 0 1-.347.346m6.266-7.758a.347.347 0 0 1-.346-.347c0-1.45-1.18-2.63-2.63-2.63s-2.63 1.18-2.63 2.63a.347.347 0 0 1-.692 0 3.327 3.327 0 0 1 3.322-3.323 3.327 3.327 0 0 1 3.323 3.323.347.347 0 0 1-.347.347"/><path d="M37.925 16.763q.102-.599.102-1.206c0-1.618-.538-3.17-1.555-4.489-.95-1.23-2.248-2.174-3.764-2.74a9.3 9.3 0 0 0-1.556-3.742l-.095-.432a1.88 1.88 0 0 0-1.615-1.457 11 11 0 0 0-.297-.247C27.17.87 24.633 0 22 0c-2.615 0-5.14.86-7.111 2.423-1.9 1.506-3.166 3.564-3.581 5.813q-.175.06-.346.126a1.9 1.9 0 0 0-.548-.082H9.137c-1.034 0-1.875.84-1.875 1.874v.943c-.976 1.28-1.533 2.826-1.533 4.46q0 .624.108 1.24c-1.709.295-2.996 1.686-2.996 3.313 0 1.63 1.268 2.994 2.948 3.305l1.925 16.994A4.044 4.044 0 0 0 11.735 44h20.151a4.06 4.06 0 0 0 4.012-3.518l2.246-17.056c1.712-.286 3.016-1.664 3.016-3.316 0-1.718-1.417-3.146-3.235-3.347M35.21 40.391a3.36 3.36 0 0 1-3.325 2.916h-3.328l2.173-15.073a.347.347 0 1 0-.686-.099l-2.187 15.172h-5.511V28.185a.347.347 0 1 0-.694 0v15.122H16l-2.187-15.172a.347.347 0 1 0-.686.1l2.172 15.072h-3.564a3.35 3.35 0 0 1-3.332-2.976L6.494 23.48h30.943zm2.273-17.603H6.516c-1.644 0-2.982-1.202-2.982-2.678 0-1.386 1.204-2.558 2.742-2.668a.347.347 0 0 0 .313-.424 6.6 6.6 0 0 1-.167-1.46c0-1.228.35-2.402.975-3.43.277.69.952 1.178 1.74 1.178h1.277a1.877 1.877 0 0 0 1.875-1.875v-1.277c0-.519-.213-.99-.554-1.33a.35.35 0 0 0 .221-.268C12.674 4.073 16.992.693 22 .693c2.43 0 4.692.79 6.46 2.115l-.885.196a1.86 1.86 0 0 0-1.175.822c-.27.422-.359.924-.25 1.412l.275 1.248c.108.489.4.906.822 1.176a1.86 1.86 0 0 0 1.413.25l1.247-.276a1.86 1.86 0 0 0 1.415-1.384c.357.747.608 1.547.734 2.385a.35.35 0 0 0 .229.276c3.02 1.049 5.049 3.719 5.049 6.644 0 .487-.056.975-.165 1.451a.347.347 0 0 0 .336.424c1.633.01 2.961 1.211 2.961 2.678 0 1.476-1.337 2.678-2.982 2.678"/></g><defs><clipPath id="a"><path fill="#fff" d="M0 0h44v44H0z"/></clipPath></defs></svg>